<svg width="82" height="35" viewBox="0 0 82 35" fill="none" xmlns="http://www.w3.org/2000/svg">
<path d="M17.1177 17.5C17.1177 16.2208 17.6383 14.9939 18.5649 14.0893C19.4916 13.1847 20.7484 12.6765 22.0589 12.6765C23.3693 12.6765 24.6261 13.1847 25.5528 14.0893C26.4794 14.9939 27 16.2208 27 17.5C27 18.7793 26.4794 20.0062 25.5528 20.9108C24.6261 21.8154 23.3693 22.3236 22.0589 22.3236C20.7484 22.3236 19.4916 21.8154 18.5649 20.9108C17.6383 20.0062 17.1177 18.7793 17.1177 17.5Z" fill="#718096"/>
<path d="M7.23535 27.147C7.23535 25.8677 7.75594 24.6409 8.68259 23.7363C9.60924 22.8317 10.866 22.3235 12.1765 22.3235H17.1177V27.147C17.1177 28.4263 16.5971 29.6532 15.6705 30.5578C14.7438 31.4624 13.487 31.9705 12.1765 31.9705C10.866 31.9705 9.60924 31.4624 8.68259 30.5578C7.75594 29.6532 7.23535 28.4263 7.23535 27.147H7.23535Z" fill="#A0AEC0"/>
<path d="M17.1177 3.02942V12.6765H22.0589C23.3693 12.6765 24.6261 12.1683 25.5528 11.2637C26.4794 10.3591 27 9.13223 27 7.85295C27 6.57367 26.4794 5.34679 25.5528 4.4422C24.6261 3.53761 23.3693 3.02942 22.0589 3.02942L17.1177 3.02942Z" fill="#4A5568"/>
<path d="M7.23535 7.85295C7.23535 9.13223 7.75594 10.3591 8.68259 11.2637C9.60924 12.1683 10.866 12.6765 12.1765 12.6765H17.1177V3.02942H12.1765C10.866 3.02942 9.60924 3.53761 8.68259 4.4422C7.75594 5.34679 7.23535 6.57367 7.23535 7.85295H7.23535Z" fill="#1A202C"/>
<path d="M7.23535 17.5C7.23535 18.7793 7.75594 20.0062 8.68259 20.9108C9.60924 21.8154 10.866 22.3236 12.1765 22.3236H17.1177V12.6765H12.1765C10.866 12.6765 9.60924 13.1847 8.68259 14.0893C7.75594 14.9939 7.23535 16.2208 7.23535 17.5H7.23535Z" fill="#4A5568"/>
<path d="M52.6005 7.99918C52.5396 6.25009 53.9023 4.63721 55.7443 4.63721H74.6193C76.4614 4.63721 77.8241 6.25009 77.7632 7.99918C77.7047 9.67934 77.7807 11.8558 78.3284 13.6304C78.8779 15.4105 79.8045 16.5357 81.3222 16.6803V18.3196C79.8045 18.4642 78.8779 19.5894 78.3284 21.3695C77.7807 23.1441 77.7047 25.3206 77.7632 27.0008C77.8241 28.7498 76.4614 30.3627 74.6193 30.3627H55.7443C53.9023 30.3627 52.5396 28.7498 52.6005 27.0008C52.659 25.3206 52.583 23.1441 52.0352 21.3695C51.4858 19.5894 50.5569 18.4642 49.0392 18.3196V16.6803C50.5568 16.5357 51.4858 15.4105 52.0352 13.6304C52.583 11.8558 52.659 9.67934 52.6005 7.99918Z" fill="#1F2733"/>
<g filter="url(#filter0_d_79_788)">
<path d="M65.8809 24.3387C68.8631 24.3387 70.6602 22.8785 70.6602 20.4701C70.6602 18.6496 69.3779 17.3316 67.474 17.1229V17.0471C68.8728 16.8195 69.9705 15.5205 69.9705 14.0698C69.9705 12.0027 68.3386 10.6562 65.8518 10.6562H60.2565V24.3387H65.8809ZM62.4324 12.3915H65.3272C66.9009 12.3915 67.7945 13.0931 67.7945 14.3637C67.7945 15.7196 66.7552 16.4782 64.8707 16.4782H62.4324V12.3915ZM62.4324 22.6035V18.0996H65.3077C67.3671 18.0996 68.4357 18.8581 68.4357 20.3374C68.4357 21.8165 67.3963 22.6035 65.434 22.6035H62.4324Z" fill="url(#paint0_linear_79_788)"/>
<path d="M65.8809 24.3387C68.8631 24.3387 70.6602 22.8785 70.6602 20.4701C70.6602 18.6496 69.3779 17.3316 67.474 17.1229V17.0471C68.8728 16.8195 69.9705 15.5205 69.9705 14.0698C69.9705 12.0027 68.3386 10.6562 65.8518 10.6562H60.2565V24.3387H65.8809ZM62.4324 12.3915H65.3272C66.9009 12.3915 67.7945 13.0931 67.7945 14.3637C67.7945 15.7196 66.7552 16.4782 64.8707 16.4782H62.4324V12.3915ZM62.4324 22.6035V18.0996H65.3077C67.3671 18.0996 68.4357 18.8581 68.4357 20.3374C68.4357 21.8165 67.3963 22.6035 65.434 22.6035H62.4324Z" stroke="white" stroke-width="0.351408"/>
</g>
<defs>
<filter id="filter0_d_79_788" x="54.4583" y="6.2637" width="22.0001" height="25.2789" filterUnits="userSpaceOnUse" color-interpolation-filters="sRGB">
<feFlood flood-opacity="0" result="BackgroundImageFix"/>
<feColorMatrix in="SourceAlpha" type="matrix" values="0 0 0 0 0 0 0 0 0 0 0 0 0 0 0 0 0 0 127 0" result="hardAlpha"/>
<feOffset dy="1.40563"/>
<feGaussianBlur stdDeviation="2.81126"/>
<feColorMatrix type="matrix" values="0 0 0 0 0 0 0 0 0 0 0 0 0 0 0 0 0 0 0.15 0"/>
<feBlend mode="normal" in2="BackgroundImageFix" result="effect1_dropShadow_79_788"/>
<feBlend mode="normal" in="SourceGraphic" in2="effect1_dropShadow_79_788" result="shape"/>
</filter>
<linearGradient id="paint0_linear_79_788" x1="61.2405" y1="11.5568" x2="67.5462" y2="22.2211" gradientUnits="userSpaceOnUse">
<stop stop-color="white"/>
<stop offset="1" stop-color="#F1E5FC"/>
</linearGradient>
</defs>
</svg>
