<svg width="121" height="24" viewBox="0 0 121 24" fill="none" xmlns="http://www.w3.org/2000/svg">
<path d="M13 2L3 14H12L11 22L21 10H12L13 2Z" stroke="#551CFF" stroke-width="2" stroke-linecap="round" stroke-linejoin="round"/>
<path d="M50.426 5.364V18H47.348V10.422L44.522 18H42.038L39.194 10.404V18H36.116V5.364H39.752L43.298 14.112L46.808 5.364H50.426ZM53.1874 6.912C52.6474 6.912 52.2034 6.756 51.8554 6.444C51.5194 6.12 51.3514 5.724 51.3514 5.256C51.3514 4.776 51.5194 4.38 51.8554 4.068C52.2034 3.744 52.6474 3.582 53.1874 3.582C53.7154 3.582 54.1474 3.744 54.4834 4.068C54.8314 4.38 55.0054 4.776 55.0054 5.256C55.0054 5.724 54.8314 6.12 54.4834 6.444C54.1474 6.756 53.7154 6.912 53.1874 6.912ZM54.7174 7.956V18H51.6394V7.956H54.7174ZM55.336 12.978C55.336 11.934 55.546 11.022 55.966 10.242C56.398 9.462 56.992 8.862 57.748 8.442C58.516 8.022 59.392 7.812 60.376 7.812C61.636 7.812 62.686 8.142 63.526 8.802C64.378 9.462 64.936 10.392 65.2 11.592H61.924C61.648 10.824 61.114 10.44 60.322 10.44C59.758 10.44 59.308 10.662 58.972 11.106C58.636 11.538 58.468 12.162 58.468 12.978C58.468 13.794 58.636 14.424 58.972 14.868C59.308 15.3 59.758 15.516 60.322 15.516C61.114 15.516 61.648 15.132 61.924 14.364H65.2C64.936 15.54 64.378 16.464 63.526 17.136C62.674 17.808 61.624 18.144 60.376 18.144C59.392 18.144 58.516 17.934 57.748 17.514C56.992 17.094 56.398 16.494 55.966 15.714C55.546 14.934 55.336 14.022 55.336 12.978ZM68.9245 9.63C69.2845 9.078 69.7345 8.646 70.2745 8.334C70.8145 8.01 71.4145 7.848 72.0745 7.848V11.106H71.2285C70.4605 11.106 69.8845 11.274 69.5005 11.61C69.1165 11.934 68.9245 12.51 68.9245 13.338V18H65.8465V7.956H68.9245V9.63ZM77.1177 18.144C76.1337 18.144 75.2457 17.934 74.4537 17.514C73.6737 17.094 73.0557 16.494 72.5997 15.714C72.1557 14.934 71.9337 14.022 71.9337 12.978C71.9337 11.946 72.1617 11.04 72.6177 10.26C73.0737 9.468 73.6977 8.862 74.4897 8.442C75.2817 8.022 76.1697 7.812 77.1537 7.812C78.1377 7.812 79.0257 8.022 79.8177 8.442C80.6097 8.862 81.2337 9.468 81.6897 10.26C82.1457 11.04 82.3737 11.946 82.3737 12.978C82.3737 14.01 82.1397 14.922 81.6717 15.714C81.2157 16.494 80.5857 17.094 79.7817 17.514C78.9897 17.934 78.1017 18.144 77.1177 18.144ZM77.1177 15.48C77.7057 15.48 78.2037 15.264 78.6117 14.832C79.0317 14.4 79.2417 13.782 79.2417 12.978C79.2417 12.174 79.0377 11.556 78.6297 11.124C78.2337 10.692 77.7417 10.476 77.1537 10.476C76.5537 10.476 76.0557 10.692 75.6597 11.124C75.2637 11.544 75.0657 12.162 75.0657 12.978C75.0657 13.782 75.2577 14.4 75.6417 14.832C76.0377 15.264 76.5297 15.48 77.1177 15.48ZM86.0846 4.68V18H83.0066V4.68H86.0846ZM88.8632 6.912C88.3232 6.912 87.8792 6.756 87.5312 6.444C87.1952 6.12 87.0272 5.724 87.0272 5.256C87.0272 4.776 87.1952 4.38 87.5312 4.068C87.8792 3.744 88.3232 3.582 88.8632 3.582C89.3912 3.582 89.8232 3.744 90.1592 4.068C90.5072 4.38 90.6812 4.776 90.6812 5.256C90.6812 5.724 90.5072 6.12 90.1592 6.444C89.8232 6.756 89.3912 6.912 88.8632 6.912ZM90.3932 7.956V18H87.3152V7.956H90.3932ZM95.4398 7.812C96.1478 7.812 96.7658 7.956 97.2938 8.244C97.8338 8.532 98.2478 8.91 98.5358 9.378V7.956H101.614V17.982C101.614 18.906 101.428 19.74 101.056 20.484C100.696 21.24 100.138 21.84 99.3818 22.284C98.6378 22.728 97.7078 22.95 96.5918 22.95C95.1038 22.95 93.8978 22.596 92.9738 21.888C92.0498 21.192 91.5218 20.244 91.3898 19.044H94.4318C94.5278 19.428 94.7558 19.728 95.1158 19.944C95.4758 20.172 95.9198 20.286 96.4478 20.286C97.0838 20.286 97.5878 20.1 97.9598 19.728C98.3438 19.368 98.5358 18.786 98.5358 17.982V16.56C98.2358 17.028 97.8218 17.412 97.2938 17.712C96.7658 18 96.1478 18.144 95.4398 18.144C94.6118 18.144 93.8618 17.934 93.1898 17.514C92.5178 17.082 91.9838 16.476 91.5878 15.696C91.2038 14.904 91.0118 13.992 91.0118 12.96C91.0118 11.928 91.2038 11.022 91.5878 10.242C91.9838 9.462 92.5178 8.862 93.1898 8.442C93.8618 8.022 94.6118 7.812 95.4398 7.812ZM98.5358 12.978C98.5358 12.21 98.3198 11.604 97.8878 11.16C97.4678 10.716 96.9518 10.494 96.3398 10.494C95.7278 10.494 95.2058 10.716 94.7738 11.16C94.3538 11.592 94.1438 12.192 94.1438 12.96C94.1438 13.728 94.3538 14.34 94.7738 14.796C95.2058 15.24 95.7278 15.462 96.3398 15.462C96.9518 15.462 97.4678 15.24 97.8878 14.796C98.3198 14.352 98.5358 13.746 98.5358 12.978ZM109.015 7.848C110.167 7.848 111.091 8.232 111.787 9C112.483 9.756 112.831 10.8 112.831 12.132V18H109.771V12.546C109.771 11.874 109.597 11.352 109.249 10.98C108.901 10.608 108.433 10.422 107.845 10.422C107.257 10.422 106.789 10.608 106.441 10.98C106.093 11.352 105.919 11.874 105.919 12.546V18H102.841V4.68H105.919V9.306C106.231 8.862 106.657 8.508 107.197 8.244C107.737 7.98 108.343 7.848 109.015 7.848ZM119.568 15.39V18H118.002C116.886 18 116.016 17.73 115.392 17.19C114.768 16.638 114.456 15.744 114.456 14.508V10.512H113.232V7.956H114.456V5.508H117.534V7.956H119.55V10.512H117.534V14.544C117.534 14.844 117.606 15.06 117.75 15.192C117.894 15.324 118.134 15.39 118.47 15.39H119.568Z" fill="#171923"/>
</svg>
