<svg width="916" height="185" viewBox="0 0 916 185" fill="none" xmlns="http://www.w3.org/2000/svg">
<g filter="url(#filter0_dd_128_810)">
<path d="M132.915 64L100 74.3381L114.772 79.6559L122.401 95.6026L132.915 64Z" fill="#4299E1"/>
<path d="M132.915 64L100 74.3381L114.772 79.6559L122.401 95.6026L132.915 64Z" stroke="white"/>
</g>
<g filter="url(#filter1_dd_128_810)">
<rect x="32" y="105" width="117" height="28" rx="11" fill="#4299E1"/>
<path d="M43.7174 123.096C43.4694 123.096 43.2774 123.028 43.1414 122.892C43.0134 122.748 42.9494 122.552 42.9494 122.304V115.32C42.9494 115.064 43.0174 114.872 43.1534 114.744C43.2894 114.608 43.4814 114.54 43.7294 114.54H46.6214C47.5494 114.54 48.2654 114.772 48.7694 115.236C49.2734 115.7 49.5254 116.348 49.5254 117.18C49.5254 118.012 49.2734 118.664 48.7694 119.136C48.2654 119.6 47.5494 119.832 46.6214 119.832H44.4854V122.304C44.4854 122.552 44.4214 122.748 44.2934 122.892C44.1654 123.028 43.9734 123.096 43.7174 123.096ZM44.4854 118.62H46.3814C46.9254 118.62 47.3374 118.5 47.6174 118.26C47.8974 118.012 48.0374 117.652 48.0374 117.18C48.0374 116.708 47.8974 116.352 47.6174 116.112C47.3374 115.872 46.9254 115.752 46.3814 115.752H44.4854V118.62ZM51.2843 123.096C51.0363 123.096 50.8443 123.032 50.7083 122.904C50.5803 122.768 50.5163 122.576 50.5163 122.328V117.792C50.5163 117.544 50.5803 117.356 50.7083 117.228C50.8363 117.1 51.0163 117.036 51.2483 117.036C51.4803 117.036 51.6603 117.1 51.7883 117.228C51.9163 117.356 51.9803 117.544 51.9803 117.792V118.548H51.8603C51.9723 118.068 52.1923 117.704 52.5203 117.456C52.8483 117.208 53.2843 117.06 53.8283 117.012C53.9963 116.996 54.1283 117.04 54.2243 117.144C54.3283 117.24 54.3883 117.392 54.4043 117.6C54.4203 117.8 54.3723 117.964 54.2603 118.092C54.1563 118.212 53.9963 118.284 53.7803 118.308L53.5163 118.332C53.0283 118.38 52.6603 118.532 52.4123 118.788C52.1643 119.036 52.0403 119.388 52.0403 119.844V122.328C52.0403 122.576 51.9763 122.768 51.8483 122.904C51.7203 123.032 51.5323 123.096 51.2843 123.096ZM57.7978 123.12C57.1898 123.12 56.6618 122.996 56.2138 122.748C55.7658 122.5 55.4178 122.148 55.1698 121.692C54.9218 121.228 54.7978 120.684 54.7978 120.06C54.7978 119.588 54.8658 119.168 55.0018 118.8C55.1458 118.424 55.3498 118.104 55.6138 117.84C55.8778 117.568 56.1938 117.364 56.5618 117.228C56.9298 117.084 57.3418 117.012 57.7978 117.012C58.4058 117.012 58.9338 117.136 59.3818 117.384C59.8298 117.632 60.1778 117.984 60.4258 118.44C60.6738 118.896 60.7978 119.436 60.7978 120.06C60.7978 120.532 60.7258 120.956 60.5818 121.332C60.4458 121.708 60.2458 122.032 59.9818 122.304C59.7178 122.568 59.4018 122.772 59.0338 122.916C58.6658 123.052 58.2538 123.12 57.7978 123.12ZM57.7978 121.98C58.0938 121.98 58.3538 121.908 58.5778 121.764C58.8018 121.62 58.9738 121.408 59.0938 121.128C59.2218 120.84 59.2858 120.484 59.2858 120.06C59.2858 119.42 59.1498 118.944 58.8778 118.632C58.6058 118.312 58.2458 118.152 57.7978 118.152C57.5018 118.152 57.2418 118.224 57.0178 118.368C56.7938 118.504 56.6178 118.716 56.4898 119.004C56.3698 119.284 56.3098 119.636 56.3098 120.06C56.3098 120.692 56.4458 121.172 56.7178 121.5C56.9898 121.82 57.3498 121.98 57.7978 121.98ZM64.2919 123.12C63.7799 123.12 63.3279 122.996 62.9359 122.748C62.5519 122.5 62.2519 122.148 62.0359 121.692C61.8199 121.228 61.7119 120.684 61.7119 120.06C61.7119 119.428 61.8199 118.888 62.0359 118.44C62.2519 117.984 62.5519 117.632 62.9359 117.384C63.3279 117.136 63.7799 117.012 64.2919 117.012C64.7799 117.012 65.2039 117.132 65.5639 117.372C65.9319 117.612 66.1799 117.928 66.3079 118.32H66.1759V115.2C66.1759 114.952 66.2399 114.764 66.3679 114.636C66.4959 114.508 66.6799 114.444 66.9199 114.444C67.1599 114.444 67.3439 114.508 67.4719 114.636C67.6079 114.764 67.6759 114.952 67.6759 115.2V122.328C67.6759 122.576 67.6119 122.768 67.4839 122.904C67.3559 123.032 67.1719 123.096 66.9319 123.096C66.6919 123.096 66.5079 123.032 66.3799 122.904C66.2519 122.768 66.1879 122.576 66.1879 122.328V121.392L66.3199 121.752C66.1999 122.168 65.9559 122.5 65.5879 122.748C65.2199 122.996 64.7879 123.12 64.2919 123.12ZM64.7119 121.98C65.0079 121.98 65.2679 121.908 65.4919 121.764C65.7159 121.62 65.8879 121.408 66.0079 121.128C66.1359 120.84 66.1999 120.484 66.1999 120.06C66.1999 119.42 66.0639 118.944 65.7919 118.632C65.5199 118.312 65.1599 118.152 64.7119 118.152C64.4159 118.152 64.1559 118.224 63.9319 118.368C63.7079 118.504 63.5319 118.716 63.4039 119.004C63.2839 119.284 63.2239 119.636 63.2239 120.06C63.2239 120.692 63.3599 121.172 63.6319 121.5C63.9039 121.82 64.2639 121.98 64.7119 121.98ZM71.3552 123.12C70.8672 123.12 70.4632 123.032 70.1432 122.856C69.8232 122.672 69.5832 122.4 69.4232 122.04C69.2712 121.68 69.1952 121.232 69.1952 120.696V117.792C69.1952 117.536 69.2592 117.348 69.3872 117.228C69.5152 117.1 69.6992 117.036 69.9392 117.036C70.1792 117.036 70.3632 117.1 70.4912 117.228C70.6272 117.348 70.6952 117.536 70.6952 117.792V120.72C70.6952 121.136 70.7792 121.444 70.9472 121.644C71.1152 121.844 71.3832 121.944 71.7512 121.944C72.1512 121.944 72.4792 121.808 72.7352 121.536C72.9912 121.256 73.1192 120.888 73.1192 120.432V117.792C73.1192 117.536 73.1832 117.348 73.3112 117.228C73.4392 117.1 73.6232 117.036 73.8632 117.036C74.1032 117.036 74.2872 117.1 74.4152 117.228C74.5512 117.348 74.6192 117.536 74.6192 117.792V122.328C74.6192 122.84 74.3752 123.096 73.8872 123.096C73.6552 123.096 73.4752 123.032 73.3472 122.904C73.2192 122.768 73.1552 122.576 73.1552 122.328V121.416L73.3232 121.776C73.1552 122.208 72.8992 122.54 72.5552 122.772C72.2192 123.004 71.8192 123.12 71.3552 123.12ZM78.8924 123.12C78.2764 123.12 77.7404 122.996 77.2844 122.748C76.8284 122.492 76.4764 122.132 76.2284 121.668C75.9804 121.204 75.8564 120.66 75.8564 120.036C75.8564 119.564 75.9244 119.144 76.0604 118.776C76.2044 118.4 76.4084 118.084 76.6724 117.828C76.9364 117.564 77.2564 117.364 77.6324 117.228C78.0084 117.084 78.4284 117.012 78.8924 117.012C79.1564 117.012 79.4404 117.048 79.7444 117.12C80.0564 117.192 80.3484 117.312 80.6204 117.48C80.7484 117.56 80.8324 117.656 80.8724 117.768C80.9124 117.88 80.9204 117.996 80.8964 118.116C80.8724 118.228 80.8204 118.328 80.7404 118.416C80.6684 118.496 80.5764 118.548 80.4644 118.572C80.3524 118.588 80.2284 118.56 80.0924 118.488C79.9164 118.384 79.7364 118.308 79.5524 118.26C79.3684 118.204 79.1924 118.176 79.0244 118.176C78.7604 118.176 78.5284 118.22 78.3284 118.308C78.1284 118.388 77.9564 118.508 77.8124 118.668C77.6764 118.82 77.5724 119.012 77.5004 119.244C77.4284 119.476 77.3924 119.744 77.3924 120.048C77.3924 120.64 77.5324 121.108 77.8124 121.452C78.1004 121.788 78.5044 121.956 79.0244 121.956C79.1924 121.956 79.3644 121.932 79.5404 121.884C79.7244 121.836 79.9084 121.76 80.0924 121.656C80.2284 121.584 80.3484 121.56 80.4524 121.584C80.5644 121.608 80.6564 121.664 80.7284 121.752C80.8004 121.832 80.8444 121.932 80.8604 122.052C80.8764 122.164 80.8604 122.276 80.8124 122.388C80.7724 122.5 80.6924 122.592 80.5724 122.664C80.3084 122.824 80.0284 122.94 79.7324 123.012C79.4364 123.084 79.1564 123.12 78.8924 123.12ZM84.552 123.12C84.032 123.12 83.596 123.032 83.244 122.856C82.9 122.68 82.644 122.424 82.476 122.088C82.308 121.744 82.224 121.32 82.224 120.816V118.26H81.6C81.408 118.26 81.26 118.212 81.156 118.116C81.052 118.012 81 117.872 81 117.696C81 117.512 81.052 117.372 81.156 117.276C81.26 117.18 81.408 117.132 81.6 117.132H82.224V116.04C82.224 115.792 82.288 115.604 82.416 115.476C82.552 115.348 82.74 115.284 82.98 115.284C83.22 115.284 83.404 115.348 83.532 115.476C83.66 115.604 83.724 115.792 83.724 116.04V117.132H84.996C85.188 117.132 85.336 117.18 85.44 117.276C85.544 117.372 85.596 117.512 85.596 117.696C85.596 117.872 85.544 118.012 85.44 118.116C85.336 118.212 85.188 118.26 84.996 118.26H83.724V120.732C83.724 121.116 83.808 121.404 83.976 121.596C84.144 121.788 84.416 121.884 84.792 121.884C84.928 121.884 85.048 121.872 85.152 121.848C85.256 121.824 85.348 121.808 85.428 121.8C85.524 121.792 85.604 121.824 85.668 121.896C85.732 121.96 85.764 122.096 85.764 122.304C85.764 122.464 85.736 122.608 85.68 122.736C85.632 122.856 85.54 122.94 85.404 122.988C85.3 123.02 85.164 123.048 84.996 123.072C84.828 123.104 84.68 123.12 84.552 123.12ZM90.6873 123C90.4233 123 90.2193 122.932 90.0753 122.796C89.9393 122.652 89.8713 122.448 89.8713 122.184V115.356C89.8713 115.092 89.9393 114.892 90.0753 114.756C90.2193 114.612 90.4233 114.54 90.6873 114.54H93.0153C94.4313 114.54 95.5233 114.904 96.2913 115.632C97.0673 116.36 97.4553 117.404 97.4553 118.764C97.4553 119.444 97.3553 120.048 97.1553 120.576C96.9633 121.096 96.6753 121.536 96.2913 121.896C95.9153 122.256 95.4513 122.532 94.8993 122.724C94.3553 122.908 93.7273 123 93.0153 123H90.6873ZM91.4073 121.728H92.9193C93.4153 121.728 93.8433 121.668 94.2033 121.548C94.5713 121.42 94.8753 121.236 95.1153 120.996C95.3633 120.748 95.5473 120.44 95.6673 120.072C95.7873 119.696 95.8473 119.26 95.8473 118.764C95.8473 117.772 95.6033 117.032 95.1153 116.544C94.6273 116.056 93.8953 115.812 92.9193 115.812H91.4073V121.728ZM101.76 123.12C101.096 123.12 100.524 122.996 100.044 122.748C99.5639 122.5 99.1919 122.148 98.9279 121.692C98.6719 121.236 98.5439 120.696 98.5439 120.072C98.5439 119.464 98.6679 118.932 98.9159 118.476C99.1719 118.02 99.5199 117.664 99.9599 117.408C100.408 117.144 100.916 117.012 101.484 117.012C101.9 117.012 102.272 117.08 102.6 117.216C102.936 117.352 103.22 117.548 103.452 117.804C103.692 118.06 103.872 118.372 103.992 118.74C104.12 119.1 104.184 119.508 104.184 119.964C104.184 120.108 104.132 120.22 104.028 120.3C103.932 120.372 103.792 120.408 103.608 120.408H99.7559V119.544H103.128L102.936 119.724C102.936 119.356 102.88 119.048 102.768 118.8C102.664 118.552 102.508 118.364 102.3 118.236C102.1 118.1 101.848 118.032 101.544 118.032C101.208 118.032 100.92 118.112 100.68 118.272C100.448 118.424 100.268 118.644 100.14 118.932C100.02 119.212 99.9599 119.548 99.9599 119.94V120.024C99.9599 120.68 100.112 121.172 100.416 121.5C100.728 121.82 101.184 121.98 101.784 121.98C101.992 121.98 102.224 121.956 102.48 121.908C102.744 121.852 102.992 121.76 103.224 121.632C103.392 121.536 103.54 121.496 103.668 121.512C103.796 121.52 103.896 121.564 103.968 121.644C104.048 121.724 104.096 121.824 104.112 121.944C104.128 122.056 104.104 122.172 104.04 122.292C103.984 122.412 103.884 122.516 103.74 122.604C103.46 122.78 103.136 122.912 102.768 123C102.408 123.08 102.072 123.12 101.76 123.12ZM107.52 123.12C107.176 123.12 106.812 123.084 106.428 123.012C106.044 122.94 105.7 122.816 105.396 122.64C105.268 122.56 105.176 122.468 105.12 122.364C105.072 122.252 105.052 122.144 105.06 122.04C105.076 121.928 105.116 121.832 105.18 121.752C105.252 121.672 105.34 121.62 105.444 121.596C105.556 121.572 105.676 121.592 105.804 121.656C106.124 121.808 106.424 121.916 106.704 121.98C106.984 122.036 107.26 122.064 107.532 122.064C107.916 122.064 108.2 122 108.384 121.872C108.576 121.736 108.672 121.56 108.672 121.344C108.672 121.16 108.608 121.02 108.48 120.924C108.36 120.82 108.176 120.744 107.928 120.696L106.728 120.468C106.232 120.372 105.852 120.192 105.588 119.928C105.332 119.656 105.204 119.308 105.204 118.884C105.204 118.5 105.308 118.168 105.516 117.888C105.732 117.608 106.028 117.392 106.404 117.24C106.78 117.088 107.212 117.012 107.7 117.012C108.052 117.012 108.38 117.052 108.684 117.132C108.996 117.204 109.296 117.32 109.584 117.48C109.704 117.544 109.784 117.628 109.824 117.732C109.872 117.836 109.884 117.944 109.86 118.056C109.836 118.16 109.788 118.256 109.716 118.344C109.644 118.424 109.552 118.476 109.44 118.5C109.336 118.516 109.216 118.492 109.08 118.428C108.832 118.3 108.592 118.208 108.36 118.152C108.136 118.096 107.92 118.068 107.712 118.068C107.32 118.068 107.028 118.136 106.836 118.272C106.652 118.408 106.56 118.588 106.56 118.812C106.56 118.98 106.616 119.12 106.728 119.232C106.84 119.344 107.012 119.42 107.244 119.46L108.444 119.688C108.964 119.784 109.356 119.96 109.62 120.216C109.892 120.472 110.028 120.816 110.028 121.248C110.028 121.832 109.8 122.292 109.344 122.628C108.888 122.956 108.28 123.12 107.52 123.12ZM111.975 123.084C111.735 123.084 111.551 123.012 111.423 122.868C111.295 122.724 111.231 122.524 111.231 122.268V117.864C111.231 117.6 111.295 117.4 111.423 117.264C111.551 117.12 111.735 117.048 111.975 117.048C112.215 117.048 112.399 117.12 112.527 117.264C112.663 117.4 112.731 117.6 112.731 117.864V122.268C112.731 122.524 112.667 122.724 112.539 122.868C112.411 123.012 112.223 123.084 111.975 123.084ZM111.975 115.932C111.695 115.932 111.475 115.864 111.315 115.728C111.163 115.584 111.087 115.388 111.087 115.14C111.087 114.884 111.163 114.688 111.315 114.552C111.475 114.416 111.695 114.348 111.975 114.348C112.263 114.348 112.483 114.416 112.635 114.552C112.787 114.688 112.863 114.884 112.863 115.14C112.863 115.388 112.787 115.584 112.635 115.728C112.483 115.864 112.263 115.932 111.975 115.932ZM117.026 125.28C116.594 125.28 116.174 125.24 115.766 125.16C115.366 125.08 115.002 124.956 114.674 124.788C114.522 124.708 114.418 124.612 114.362 124.5C114.314 124.388 114.298 124.272 114.314 124.152C114.338 124.04 114.386 123.94 114.458 123.852C114.538 123.764 114.634 123.704 114.746 123.672C114.858 123.64 114.974 123.656 115.094 123.72C115.446 123.896 115.778 124.008 116.09 124.056C116.41 124.112 116.682 124.14 116.906 124.14C117.442 124.14 117.842 124.008 118.106 123.744C118.378 123.488 118.514 123.104 118.514 122.592V121.512H118.622C118.502 121.92 118.25 122.248 117.866 122.496C117.49 122.736 117.062 122.856 116.582 122.856C116.054 122.856 115.594 122.736 115.202 122.496C114.81 122.248 114.506 121.904 114.29 121.464C114.074 121.024 113.966 120.512 113.966 119.928C113.966 119.488 114.026 119.092 114.146 118.74C114.274 118.38 114.45 118.072 114.674 117.816C114.906 117.56 115.182 117.364 115.502 117.228C115.83 117.084 116.19 117.012 116.582 117.012C117.078 117.012 117.51 117.136 117.878 117.384C118.254 117.624 118.498 117.944 118.61 118.344L118.49 118.644V117.792C118.49 117.544 118.554 117.356 118.682 117.228C118.818 117.1 119.002 117.036 119.234 117.036C119.474 117.036 119.658 117.1 119.786 117.228C119.914 117.356 119.978 117.544 119.978 117.792V122.412C119.978 123.364 119.726 124.08 119.222 124.56C118.718 125.04 117.986 125.28 117.026 125.28ZM116.99 121.716C117.302 121.716 117.57 121.644 117.794 121.5C118.018 121.356 118.19 121.152 118.31 120.888C118.438 120.616 118.502 120.296 118.502 119.928C118.502 119.376 118.366 118.944 118.094 118.632C117.822 118.312 117.454 118.152 116.99 118.152C116.678 118.152 116.41 118.224 116.186 118.368C115.962 118.512 115.786 118.716 115.658 118.98C115.538 119.244 115.478 119.56 115.478 119.928C115.478 120.48 115.614 120.916 115.886 121.236C116.158 121.556 116.526 121.716 116.99 121.716ZM122.276 123.096C122.036 123.096 121.852 123.032 121.724 122.904C121.596 122.768 121.532 122.576 121.532 122.328V117.792C121.532 117.544 121.596 117.356 121.724 117.228C121.852 117.1 122.032 117.036 122.264 117.036C122.496 117.036 122.676 117.1 122.804 117.228C122.932 117.356 122.996 117.544 122.996 117.792V118.608L122.864 118.308C123.04 117.884 123.312 117.564 123.68 117.348C124.056 117.124 124.48 117.012 124.952 117.012C125.424 117.012 125.812 117.1 126.116 117.276C126.42 117.452 126.648 117.72 126.8 118.08C126.952 118.432 127.028 118.88 127.028 119.424V122.328C127.028 122.576 126.964 122.768 126.836 122.904C126.708 123.032 126.524 123.096 126.284 123.096C126.044 123.096 125.856 123.032 125.72 122.904C125.592 122.768 125.528 122.576 125.528 122.328V119.496C125.528 119.04 125.44 118.708 125.264 118.5C125.096 118.292 124.832 118.188 124.472 118.188C124.032 118.188 123.68 118.328 123.416 118.608C123.16 118.88 123.032 119.244 123.032 119.7V122.328C123.032 122.84 122.78 123.096 122.276 123.096ZM131.443 123.12C130.779 123.12 130.207 122.996 129.727 122.748C129.247 122.5 128.875 122.148 128.611 121.692C128.355 121.236 128.227 120.696 128.227 120.072C128.227 119.464 128.351 118.932 128.599 118.476C128.855 118.02 129.203 117.664 129.643 117.408C130.091 117.144 130.599 117.012 131.167 117.012C131.583 117.012 131.955 117.08 132.283 117.216C132.619 117.352 132.903 117.548 133.135 117.804C133.375 118.06 133.555 118.372 133.675 118.74C133.803 119.1 133.867 119.508 133.867 119.964C133.867 120.108 133.815 120.22 133.711 120.3C133.615 120.372 133.475 120.408 133.291 120.408H129.439V119.544H132.811L132.619 119.724C132.619 119.356 132.563 119.048 132.451 118.8C132.347 118.552 132.191 118.364 131.983 118.236C131.783 118.1 131.531 118.032 131.227 118.032C130.891 118.032 130.603 118.112 130.363 118.272C130.131 118.424 129.951 118.644 129.823 118.932C129.703 119.212 129.643 119.548 129.643 119.94V120.024C129.643 120.68 129.795 121.172 130.099 121.5C130.411 121.82 130.867 121.98 131.467 121.98C131.675 121.98 131.907 121.956 132.163 121.908C132.427 121.852 132.675 121.76 132.907 121.632C133.075 121.536 133.223 121.496 133.351 121.512C133.479 121.52 133.579 121.564 133.651 121.644C133.731 121.724 133.779 121.824 133.795 121.944C133.811 122.056 133.787 122.172 133.723 122.292C133.667 122.412 133.567 122.516 133.423 122.604C133.143 122.78 132.819 122.912 132.451 123C132.091 123.08 131.755 123.12 131.443 123.12ZM135.823 123.096C135.575 123.096 135.383 123.032 135.247 122.904C135.119 122.768 135.055 122.576 135.055 122.328V117.792C135.055 117.544 135.119 117.356 135.247 117.228C135.375 117.1 135.555 117.036 135.787 117.036C136.019 117.036 136.199 117.1 136.327 117.228C136.455 117.356 136.519 117.544 136.519 117.792V118.548H136.399C136.511 118.068 136.731 117.704 137.059 117.456C137.387 117.208 137.823 117.06 138.367 117.012C138.535 116.996 138.667 117.04 138.763 117.144C138.867 117.24 138.927 117.392 138.943 117.6C138.959 117.8 138.911 117.964 138.799 118.092C138.695 118.212 138.535 118.284 138.319 118.308L138.055 118.332C137.567 118.38 137.199 118.532 136.951 118.788C136.703 119.036 136.579 119.388 136.579 119.844V122.328C136.579 122.576 136.515 122.768 136.387 122.904C136.259 123.032 136.071 123.096 135.823 123.096Z" fill="white"/>
</g>
<g filter="url(#filter2_dd_128_810)">
<path d="M817.09 13L850.005 23.3381L835.233 28.6559L827.603 44.6026L817.09 13Z" fill="#FACC15"/>
<path d="M817.09 13L850.005 23.3381L835.233 28.6559L827.603 44.6026L817.09 13Z" stroke="white"/>
</g>
<g filter="url(#filter3_dd_128_810)">
<rect x="841.002" y="54" width="42" height="28" rx="11" fill="#FACC15"/>
<path d="M852.803 72C852.539 72 852.335 71.932 852.191 71.796C852.055 71.652 851.987 71.448 851.987 71.184V64.356C851.987 64.092 852.055 63.892 852.191 63.756C852.335 63.612 852.539 63.54 852.803 63.54H855.131C856.547 63.54 857.639 63.904 858.407 64.632C859.183 65.36 859.571 66.404 859.571 67.764C859.571 68.444 859.471 69.048 859.271 69.576C859.079 70.096 858.791 70.536 858.407 70.896C858.031 71.256 857.567 71.532 857.015 71.724C856.471 71.908 855.843 72 855.131 72H852.803ZM853.523 70.728H855.035C855.531 70.728 855.959 70.668 856.319 70.548C856.687 70.42 856.991 70.236 857.23 69.996C857.479 69.748 857.663 69.44 857.783 69.072C857.903 68.696 857.963 68.26 857.963 67.764C857.963 66.772 857.719 66.032 857.23 65.544C856.743 65.056 856.011 64.812 855.035 64.812H853.523V70.728ZM863.875 72.12C863.211 72.12 862.639 71.996 862.159 71.748C861.679 71.5 861.307 71.148 861.043 70.692C860.787 70.236 860.659 69.696 860.659 69.072C860.659 68.464 860.783 67.932 861.031 67.476C861.287 67.02 861.635 66.664 862.075 66.408C862.523 66.144 863.031 66.012 863.599 66.012C864.015 66.012 864.387 66.08 864.715 66.216C865.051 66.352 865.335 66.548 865.567 66.804C865.807 67.06 865.987 67.372 866.107 67.74C866.235 68.1 866.299 68.508 866.299 68.964C866.299 69.108 866.247 69.22 866.143 69.3C866.047 69.372 865.907 69.408 865.723 69.408H861.871V68.544H865.243L865.051 68.724C865.051 68.356 864.995 68.048 864.883 67.8C864.779 67.552 864.623 67.364 864.415 67.236C864.215 67.1 863.963 67.032 863.659 67.032C863.323 67.032 863.035 67.112 862.795 67.272C862.563 67.424 862.383 67.644 862.255 67.932C862.135 68.212 862.075 68.548 862.075 68.94V69.024C862.075 69.68 862.227 70.172 862.531 70.5C862.843 70.82 863.299 70.98 863.899 70.98C864.107 70.98 864.339 70.956 864.595 70.908C864.859 70.852 865.107 70.76 865.339 70.632C865.507 70.536 865.655 70.496 865.783 70.512C865.911 70.52 866.011 70.564 866.083 70.644C866.163 70.724 866.211 70.824 866.227 70.944C866.243 71.056 866.219 71.172 866.155 71.292C866.099 71.412 865.999 71.516 865.855 71.604C865.575 71.78 865.251 71.912 864.883 72C864.523 72.08 864.187 72.12 863.875 72.12ZM869.769 72.096C869.569 72.096 869.393 72.044 869.241 71.94C869.097 71.836 868.977 71.676 868.881 71.46L866.973 67.032C866.901 66.856 866.873 66.692 866.889 66.54C866.913 66.388 866.985 66.268 867.105 66.18C867.233 66.084 867.405 66.036 867.621 66.036C867.805 66.036 867.953 66.08 868.065 66.168C868.177 66.248 868.277 66.404 868.365 66.636L869.985 70.68H869.625L871.293 66.624C871.381 66.4 871.481 66.248 871.593 66.168C871.713 66.08 871.873 66.036 872.073 66.036C872.249 66.036 872.389 66.084 872.493 66.18C872.597 66.268 872.661 66.388 872.685 66.54C872.709 66.684 872.681 66.844 872.601 67.02L870.657 71.46C870.569 71.676 870.449 71.836 870.297 71.94C870.153 72.044 869.977 72.096 869.769 72.096Z" fill="white"/>
</g>
<defs>
<filter id="filter0_dd_128_810" x="66.4341" y="51.23" width="99.2637" height="97.7057" filterUnits="userSpaceOnUse" color-interpolation-filters="sRGB">
<feFlood flood-opacity="0" result="BackgroundImageFix"/>
<feColorMatrix in="SourceAlpha" type="matrix" values="0 0 0 0 0 0 0 0 0 0 0 0 0 0 0 0 0 0 127 0" result="hardAlpha"/>
<feOffset dy="20"/>
<feGaussianBlur stdDeviation="16"/>
<feColorMatrix type="matrix" values="0 0 0 0 0.376471 0 0 0 0 0.380392 0 0 0 0 0.439216 0 0 0 0.24 0"/>
<feBlend mode="normal" in2="BackgroundImageFix" result="effect1_dropShadow_128_810"/>
<feColorMatrix in="SourceAlpha" type="matrix" values="0 0 0 0 0 0 0 0 0 0 0 0 0 0 0 0 0 0 127 0" result="hardAlpha"/>
<feOffset dy="2"/>
<feGaussianBlur stdDeviation="4"/>
<feColorMatrix type="matrix" values="0 0 0 0 0.156863 0 0 0 0 0.160784 0 0 0 0 0.239216 0 0 0 0.08 0"/>
<feBlend mode="normal" in2="effect1_dropShadow_128_810" result="effect2_dropShadow_128_810"/>
<feBlend mode="normal" in="SourceGraphic" in2="effect2_dropShadow_128_810" result="shape"/>
</filter>
<filter id="filter1_dd_128_810" x="0" y="93" width="181" height="92" filterUnits="userSpaceOnUse" color-interpolation-filters="sRGB">
<feFlood flood-opacity="0" result="BackgroundImageFix"/>
<feColorMatrix in="SourceAlpha" type="matrix" values="0 0 0 0 0 0 0 0 0 0 0 0 0 0 0 0 0 0 127 0" result="hardAlpha"/>
<feOffset dy="20"/>
<feGaussianBlur stdDeviation="16"/>
<feColorMatrix type="matrix" values="0 0 0 0 0.376471 0 0 0 0 0.380392 0 0 0 0 0.439216 0 0 0 0.24 0"/>
<feBlend mode="normal" in2="BackgroundImageFix" result="effect1_dropShadow_128_810"/>
<feColorMatrix in="SourceAlpha" type="matrix" values="0 0 0 0 0 0 0 0 0 0 0 0 0 0 0 0 0 0 127 0" result="hardAlpha"/>
<feOffset dy="2"/>
<feGaussianBlur stdDeviation="4"/>
<feColorMatrix type="matrix" values="0 0 0 0 0.156863 0 0 0 0 0.160784 0 0 0 0 0.239216 0 0 0 0.08 0"/>
<feBlend mode="normal" in2="effect1_dropShadow_128_810" result="effect2_dropShadow_128_810"/>
<feBlend mode="normal" in="SourceGraphic" in2="effect2_dropShadow_128_810" result="shape"/>
</filter>
<filter id="filter2_dd_128_810" x="784.308" y="0.22998" width="99.2627" height="97.7057" filterUnits="userSpaceOnUse" color-interpolation-filters="sRGB">
<feFlood flood-opacity="0" result="BackgroundImageFix"/>
<feColorMatrix in="SourceAlpha" type="matrix" values="0 0 0 0 0 0 0 0 0 0 0 0 0 0 0 0 0 0 127 0" result="hardAlpha"/>
<feOffset dy="20"/>
<feGaussianBlur stdDeviation="16"/>
<feColorMatrix type="matrix" values="0 0 0 0 0.376471 0 0 0 0 0.380392 0 0 0 0 0.439216 0 0 0 0.24 0"/>
<feBlend mode="normal" in2="BackgroundImageFix" result="effect1_dropShadow_128_810"/>
<feColorMatrix in="SourceAlpha" type="matrix" values="0 0 0 0 0 0 0 0 0 0 0 0 0 0 0 0 0 0 127 0" result="hardAlpha"/>
<feOffset dy="2"/>
<feGaussianBlur stdDeviation="4"/>
<feColorMatrix type="matrix" values="0 0 0 0 0.156863 0 0 0 0 0.160784 0 0 0 0 0.239216 0 0 0 0.08 0"/>
<feBlend mode="normal" in2="effect1_dropShadow_128_810" result="effect2_dropShadow_128_810"/>
<feBlend mode="normal" in="SourceGraphic" in2="effect2_dropShadow_128_810" result="shape"/>
</filter>
<filter id="filter3_dd_128_810" x="809.002" y="42" width="106" height="92" filterUnits="userSpaceOnUse" color-interpolation-filters="sRGB">
<feFlood flood-opacity="0" result="BackgroundImageFix"/>
<feColorMatrix in="SourceAlpha" type="matrix" values="0 0 0 0 0 0 0 0 0 0 0 0 0 0 0 0 0 0 127 0" result="hardAlpha"/>
<feOffset dy="20"/>
<feGaussianBlur stdDeviation="16"/>
<feColorMatrix type="matrix" values="0 0 0 0 0.376471 0 0 0 0 0.380392 0 0 0 0 0.439216 0 0 0 0.24 0"/>
<feBlend mode="normal" in2="BackgroundImageFix" result="effect1_dropShadow_128_810"/>
<feColorMatrix in="SourceAlpha" type="matrix" values="0 0 0 0 0 0 0 0 0 0 0 0 0 0 0 0 0 0 127 0" result="hardAlpha"/>
<feOffset dy="2"/>
<feGaussianBlur stdDeviation="4"/>
<feColorMatrix type="matrix" values="0 0 0 0 0.156863 0 0 0 0 0.160784 0 0 0 0 0.239216 0 0 0 0.08 0"/>
<feBlend mode="normal" in2="effect1_dropShadow_128_810" result="effect2_dropShadow_128_810"/>
<feBlend mode="normal" in="SourceGraphic" in2="effect2_dropShadow_128_810" result="shape"/>
</filter>
</defs>
</svg>
